<svg width="56" height="56" viewBox="0 0 56 56" fill="none" xmlns="http://www.w3.org/2000/svg">
<path d="M46.4334 29.54C46.0593 29.1142 45.853 28.5667 45.853 28C45.853 27.4332 46.0593 26.8858 46.4334 26.46L49.4201 23.1C49.7492 22.7329 49.9536 22.2709 50.0039 21.7805C50.0542 21.29 49.9478 20.7962 49.7001 20.37L45.0334 12.2966C44.7882 11.8708 44.4148 11.5333 43.9665 11.3322C43.5182 11.1311 43.0178 11.0767 42.5368 11.1766L38.1501 12.0633C37.5919 12.1786 37.0108 12.0857 36.5165 11.802C36.0222 11.5183 35.6487 11.0634 35.4668 10.5233L34.0434 6.25329C33.8869 5.78984 33.5887 5.38731 33.1909 5.10259C32.7931 4.81787 32.3159 4.66536 31.8268 4.66663H22.4934C21.9846 4.64007 21.4811 4.78079 21.0597 5.06729C20.6384 5.3538 20.3224 5.77034 20.1601 6.25329L18.8534 10.5233C18.6714 11.0634 18.298 11.5183 17.8037 11.802C17.3093 12.0857 16.7283 12.1786 16.1701 12.0633L11.6668 11.1766C11.2107 11.1122 10.7458 11.1841 10.3306 11.3835C9.91534 11.5828 9.56839 11.9005 9.33342 12.2966L4.66675 20.37C4.41279 20.7915 4.2986 21.2825 4.34051 21.7728C4.38242 22.2631 4.57828 22.7277 4.90008 23.1L7.86342 26.46C8.23749 26.8858 8.4438 27.4332 8.4438 28C8.4438 28.5667 8.23749 29.1142 7.86342 29.54L4.90008 32.9C4.57828 33.2723 4.38242 33.7368 4.34051 34.2271C4.2986 34.7174 4.41279 35.2084 4.66675 35.63L9.33342 43.7033C9.57864 44.1291 9.95203 44.4666 10.4003 44.6677C10.8486 44.8688 11.349 44.9233 11.8301 44.8233L16.2168 43.9366C16.7749 43.8213 17.356 43.9142 17.8503 44.198C18.3447 44.4817 18.7181 44.9365 18.9001 45.4766L20.3234 49.7466C20.4858 50.2296 20.8017 50.6461 21.2231 50.9326C21.6444 51.2191 22.1479 51.3598 22.6568 51.3333H31.9901C32.4793 51.3346 32.9564 51.182 33.3542 50.8973C33.752 50.6126 34.0502 50.2101 34.2068 49.7466L35.6301 45.4766C35.8121 44.9365 36.1855 44.4817 36.6798 44.198C37.1742 43.9142 37.7552 43.8213 38.3134 43.9366L42.7001 44.8233C43.1812 44.9233 43.6815 44.8688 44.1298 44.6677C44.5781 44.4666 44.9515 44.1291 45.1968 43.7033L49.8634 35.63C50.1112 35.2037 50.2175 34.7099 50.1672 34.2194C50.1169 33.729 49.9125 33.2671 49.5834 32.9L46.4334 29.54ZM42.9568 32.6666L44.8234 34.7666L41.8368 39.9466L39.0834 39.3866C37.4029 39.0431 35.6548 39.3286 34.1708 40.1888C32.6869 41.0491 31.5704 42.4243 31.0334 44.0533L30.1468 46.6666H24.1734L23.3334 44.0066C22.7964 42.3776 21.68 41.0024 20.196 40.1422C18.7121 39.2819 16.9639 38.9964 15.2834 39.34L12.5301 39.9L9.49675 34.7433L11.3634 32.6433C12.5113 31.3599 13.1459 29.6985 13.1459 27.9766C13.1459 26.2548 12.5113 24.5933 11.3634 23.31L9.49675 21.21L12.4834 16.0766L15.2368 16.6366C16.9173 16.9801 18.6654 16.6947 20.1494 15.8344C21.6333 14.9742 22.7497 13.599 23.2868 11.97L24.1734 9.33329H30.1468L31.0334 11.9933C31.5704 13.6223 32.6869 14.9975 34.1708 15.8578C35.6548 16.718 37.4029 17.0035 39.0834 16.66L41.8368 16.1L44.8234 21.28L42.9568 23.38C41.8217 24.6604 41.195 26.3122 41.195 28.0233C41.195 29.7344 41.8217 31.3862 42.9568 32.6666ZM27.1601 18.6666C25.3141 18.6666 23.5096 19.214 21.9748 20.2396C20.4399 21.2651 19.2436 22.7228 18.5372 24.4282C17.8308 26.1337 17.646 28.0103 18.0061 29.8208C18.3662 31.6313 19.2551 33.2943 20.5604 34.5996C21.8657 35.9049 23.5288 36.7938 25.3392 37.154C27.1497 37.5141 29.0264 37.3293 30.7318 36.6228C32.4372 35.9164 33.8949 34.7201 34.9205 33.1853C35.946 31.6504 36.4934 29.8459 36.4934 28C36.4934 25.5246 35.5101 23.1506 33.7597 21.4003C32.0094 19.65 29.6354 18.6666 27.1601 18.6666ZM27.1601 32.6666C26.2371 32.6666 25.3349 32.3929 24.5674 31.8801C23.8 31.3674 23.2019 30.6385 22.8486 29.7858C22.4954 28.9331 22.403 27.9948 22.5831 27.0895C22.7632 26.1843 23.2076 25.3528 23.8603 24.7001C24.5129 24.0475 25.3444 23.603 26.2497 23.423C27.1549 23.2429 28.0932 23.3353 28.9459 23.6885C29.7987 24.0417 30.5275 24.6399 31.0403 25.4073C31.5531 26.1747 31.8268 27.077 31.8268 28C31.8268 29.2376 31.3351 30.4246 30.4599 31.2998C29.5847 32.175 28.3978 32.6666 27.1601 32.6666Z" fill="black"/>
</svg>
